<?xml version="1.0" standalone="no"?>
<!DOCTYPE svg PUBLIC "-//W3C//DTD SVG 20010904//EN"
 "http://www.w3.org/TR/2001/REC-SVG-20010904/DTD/svg10.dtd">
<svg version="1.0" xmlns="http://www.w3.org/2000/svg"
 width="202.000000pt" height="128.000000pt" viewBox="0 0 202.000000 128.000000"
 preserveAspectRatio="xMidYMid meet">
<metadata>
Created by potrace 1.16, written by Peter Selinger 2001-2019
</metadata>
<g transform="translate(0.000000,128.000000) scale(0.100000,-0.100000)"
fill="#FFFFFF" stroke="none">
<path d="M1760 1080 c-8 -5 -32 -10 -52 -10 -28 0 -38 -4 -38 -16 0 -13 7 -15
35 -10 19 4 35 5 35 2 0 -3 -30 -22 -67 -43 -90 -49 -229 -137 -390 -244 -72
-49 -153 -96 -180 -104 -26 -9 -56 -20 -65 -25 -10 -6 -26 -10 -36 -10 -10 0
-22 -3 -26 -7 -9 -9 -140 -52 -145 -47 -2 2 4 18 12 37 9 18 19 52 23 75 6 37
4 42 -19 53 -30 14 -64 -1 -182 -76 -100 -65 -142 -101 -280 -240 -106 -107
-176 -196 -190 -242 -10 -34 22 -30 65 8 61 54 167 139 174 139 4 0 30 15 59
33 29 18 79 46 112 62 33 17 62 32 65 35 12 13 91 43 97 37 3 -4 1 -18 -5 -32
-7 -14 -12 -50 -12 -80 0 -50 2 -55 22 -55 13 0 42 21 73 53 54 55 159 149
210 188 17 13 32 26 35 30 15 19 91 57 125 63 55 9 237 32 308 39 58 6 59 5
41 -14 -9 -10 -14 -22 -11 -25 8 -8 77 43 77 57 0 24 -134 42 -142 19 -2 -6
-41 -15 -88 -20 -47 -6 -105 -13 -130 -16 l-45 -6 59 42 c89 63 354 230 365
230 5 0 11 3 13 8 3 8 108 62 120 62 4 0 2 -11 -4 -25 -9 -19 -9 -28 0 -37 8
-8 13 -7 18 8 3 10 13 34 21 52 11 26 12 36 3 48 -14 16 -38 18 -60 4z m-920
-400 c0 -11 -4 -28 -9 -38 -5 -9 -18 -37 -29 -62 -19 -44 -25 -48 -156 -113
-136 -66 -319 -178 -345 -210 -7 -9 -18 -17 -23 -17 -17 0 36 64 134 162 83
82 137 129 268 231 34 27 116 67 138 67 15 0 22 -6 22 -20z m204 -92 c-65 -51
-83 -67 -170 -151 -50 -48 -93 -85 -96 -82 -7 8 10 98 27 137 10 24 24 37 52
47 21 7 54 20 73 28 19 8 44 19 55 24 21 9 51 16 74 18 7 0 1 -9 -15 -21z"/>
</g>
</svg>
